<?xml version="1.0" encoding="UTF-8" standalone="no"?>
<!-- Created with Inkscape (http://www.inkscape.org/) -->

<svg
   xmlns:dc="http://purl.org/dc/elements/1.1/"
   xmlns:cc="http://creativecommons.org/ns#"
   xmlns:rdf="http://www.w3.org/1999/02/22-rdf-syntax-ns#"
   xmlns:svg="http://www.w3.org/2000/svg"
   xmlns="http://www.w3.org/2000/svg"
   xmlns:sodipodi="http://sodipodi.sourceforge.net/DTD/sodipodi-0.dtd"
   xmlns:inkscape="http://www.inkscape.org/namespaces/inkscape"
   width="297mm"
   height="210mm"
   viewBox="0 0 297 210"
   version="1.1"
   id="svg8"
   inkscape:version="0.92.1 r15371"
   sodipodi:docname="codecop.svg"
   inkscape:export-filename="C:\Users\fbc\Dropbox\codecop\codecop.png"
   inkscape:export-xdpi="100"
   inkscape:export-ydpi="100">
  <defs
     id="defs2" />
  <sodipodi:namedview
     id="base"
     pagecolor="#ffffff"
     bordercolor="#666666"
     borderopacity="1.0"
     inkscape:pageopacity="0.0"
     inkscape:pageshadow="2"
     inkscape:zoom="0.69043651"
     inkscape:cx="619.1942"
     inkscape:cy="396.85039"
     inkscape:document-units="mm"
     inkscape:current-layer="layer1"
     showgrid="false"
     borderlayer="false"
     showborder="true"
     inkscape:window-width="1366"
     inkscape:window-height="715"
     inkscape:window-x="-8"
     inkscape:window-y="-8"
     inkscape:window-maximized="1"
     showguides="true"
     inkscape:lockguides="true"
     inkscape:guide-bbox="true"
     inkscape:measure-start="299.854,385.507"
     inkscape:measure-end="307.07,404.081">
    <inkscape:grid
       type="xygrid"
       id="grid3710" />
  </sodipodi:namedview>
  <metadata
     id="metadata5">
    <rdf:RDF>
      <cc:Work
         rdf:about="">
        <dc:format>image/svg+xml</dc:format>
        <dc:type
           rdf:resource="http://purl.org/dc/dcmitype/StillImage" />
        <dc:title />
      </cc:Work>
    </rdf:RDF>
  </metadata>
  <g
     inkscape:label="Layer 1"
     inkscape:groupmode="layer"
     id="layer1"
     transform="translate(0,-87)">
    <g
       id="g830"
       transform="matrix(1.1089079,0,0,1.1089079,-16.172821,-20.92492)">
      <path
         id="path3691"
         d="m 149.05242,141.51161 c -15.875,15.875 -35.85962,23.55918 -58.208329,23.8125 0,11.90625 -3.701415,19.62082 -9.978205,24.37629 41.467524,26.40549 95.968744,26.52819 135.268224,0 -5.78448,-5.03341 -8.39302,-12.26707 -9.17308,-24.44967 -27.01925,-1.21732 -42.03361,-7.86412 -57.90861,-23.73912 z m -0.51625,22.53092 c 3.23734,2.29276 7.15841,3.10054 10.465,1.18649 1.88611,8.47533 -1.26485,15.85667 -10.465,21.7904 -10.16599,-5.93373 -12.44583,-14.12289 -10.34975,-21.7904 4.1434,1.983 7.2705,0.99164 10.34975,-1.18649 z"
         style="fill:#000000;stroke:none;stroke-width:0.26458332px;stroke-linecap:butt;stroke-linejoin:miter;stroke-opacity:1"
         inkscape:connector-curvature="0" />
      <path
         sodipodi:nodetypes="cccc"
         inkscape:connector-curvature="0"
         id="path3695"
         d="m 94.217101,204.2504 c 35.250129,17.85233 68.202759,19.63331 108.599239,0.88932 -2.85346,14.17526 -22.96804,38.28229 -55.6708,37.34867 -36.12017,-1.29978 -48.658571,-25.5073 -52.928439,-38.23799 z"
         style="fill:#000000;stroke:none;stroke-width:0.27263016px;stroke-linecap:butt;stroke-linejoin:miter;stroke-opacity:1" />
    </g>
  </g>
</svg>
